<?xml version="1.0" encoding="UTF-8"?><svg id="_イヤー_2" xmlns="http://www.w3.org/2000/svg" viewBox="0 0 461.275 93.477"><defs><style>.cls-1{fill:#231815;}</style></defs><g id="_キスト"><g><path class="cls-1" d="M82.796,84.717h-.6c-1.92,0-3.479-1.561-3.479-3.48,0-1.8,1.2-2.88,2.88-3.359,1.32-.36,2.399-.6,3.6-1.2,4.32-2.52,6.12-7.8,6.12-12.6,0-13.08-14.04-18-24.839-18.839-1.2-.12-2.4-.12-3.6-.12-5.279,0-10.56,.72-15.719,1.92-.48,5.88-1.2,15.36-2.76,20.879-3.84,13.08-12.359,23.64-26.999,23.64-9.359,0-17.399-5.04-17.399-15.12,0-18.359,25.799-30.719,40.558-35.039,.6-7.68,1.2-15.479,1.68-23.159-3.48-.24-8.04-.36-11.4-1.08-1.68-.36-3-1.56-3-3.48s1.56-3.6,3.479-3.48h.48c3.6,.24,7.2,.72,10.8,.96,.12-2.04,0-4.08,.24-6.12,.24-2.16,1.56-3.48,3.72-3.48,2.04,0,3.36,1.92,3.36,3.72,0,2.04-.24,4.2-.36,6.239,4.2,.24,8.28,.36,12.479,.36,1.92,0,3.6,1.56,3.6,3.479s-1.68,3.48-3.6,3.48c-4.32,0-8.52,0-12.839-.24-.36,7.08-.84,14.039-1.44,21.119,5.04-1.08,10.08-1.68,15.239-1.68,1.32,0,2.76,0,4.08,.12,4.439,.36,8.64,1.08,12.839,2.64,10.2,3.6,18.359,11.999,18.359,23.279,0,9.96-5.16,18.72-15.479,20.64ZM7.08,76.437c0,6.12,5.04,8.04,10.319,8.04,11.16,0,17.52-8.64,20.279-18.479,1.32-4.92,1.8-11.759,2.28-16.919-10.919,3.36-32.878,13.8-32.878,27.359ZM105.355,35.759c-1.56,0-2.88-2.04-2.88-3.48,0-.6,.24-1.2,.24-1.8,0-2.52-1.2-9.959-2.28-12.12-.24-.6-.48-1.08-.48-1.68,0-2.04,1.56-3.6,3.6-3.6,1.2,0,2.4,.72,3,1.8,1.8,3.12,3.12,12.119,3.12,15.839,0,3.24-.84,5.04-4.32,5.04Z"/><path class="cls-1" d="M159.958,63.838c-3,2.52-11.159,5.52-14.999,5.52-5.16,0-10.08-9-12.12-12.72-2.28-4.08-8.4-16.919-8.4-21.359,0-1.92,1.68-3.6,3.6-3.6,1.8,0,3.12,1.2,3.6,2.88,.6,2.16,1.2,4.32,1.92,6.48,1.8,4.68,8.04,18.119,11.879,21.119,3.24-.239,7.44-2.4,10.2-4.08,.72-.48,1.32-.72,2.16-.72,2.04,0,3.6,1.68,3.6,3.6,0,1.2-.48,2.16-1.44,2.88Zm55.918-10.32c-1.92,0-3.6-1.8-3.6-3.72,0-.6,.12-1.08,.36-1.56,1.08-2.28,1.44-4.68,1.44-7.2,0-2.64-.48-7.08-2.28-9-.72-.72-1.08-1.56-1.08-2.64,0-1.92,1.68-3.48,3.6-3.48,5.4,0,6.959,11.28,6.959,15.12,0,3.24-.84,12.479-5.399,12.479Z"/><path class="cls-1" d="M298.557,93.477c-.36,0-1.08-.12-1.44-.24-14.52-5.64-15.6-29.039-15.6-42.119,0-11.04,.841-21.959,1.92-32.759l.961-9.959c.119-1.68,.239-3.48,.479-5.16,.36-1.92,1.68-3.24,3.6-3.24s3.72,1.68,3.601,3.6v.36c-.841,15.72-3.24,31.439-3.24,47.158,0,9.24,.479,26.04,7.319,32.999,1.2,1.2,2.28,1.681,3.72,2.521,1.32,.84,2.28,1.68,2.28,3.359,0,1.92-1.68,3.48-3.6,3.48Z"/><path class="cls-1" d="M399.958,63.838c-3,2.52-11.159,5.52-14.999,5.52-5.16,0-10.08-9-12.12-12.72-2.279-4.08-8.399-16.919-8.399-21.359,0-1.92,1.68-3.6,3.6-3.6,1.801,0,3.12,1.2,3.601,2.88,.6,2.16,1.199,4.32,1.92,6.48,1.8,4.68,8.039,18.119,11.879,21.119,3.24-.239,7.44-2.4,10.2-4.08,.72-.48,1.319-.72,2.159-.72,2.04,0,3.601,1.68,3.601,3.6,0,1.2-.48,2.16-1.44,2.88Zm55.918-10.32c-1.92,0-3.6-1.8-3.6-3.72,0-.6,.12-1.08,.359-1.56,1.08-2.28,1.44-4.68,1.44-7.2,0-2.64-.48-7.08-2.28-9-.72-.72-1.08-1.56-1.08-2.64,0-1.92,1.681-3.48,3.601-3.48,5.399,0,6.959,11.28,6.959,15.12,0,3.24-.84,12.479-5.399,12.479Z"/></g></g></svg>